<?xml version="1.0" encoding="utf-8"?><svg id="InDesign_64" data-name="InDesign 64" xmlns="http://www.w3.org/2000/svg" width="63.999" height="62" viewBox="0 0 63.999 62">
  <path id="Path_99537" data-name="Path 99537" d="M11.4,0H52.8A11.171,11.171,0,0,1,64,11.291V50.709A11.34,11.34,0,0,1,52.6,62H11.4A11.341,11.341,0,0,1,0,50.709V11.291A11.216,11.216,0,0,1,11.4,0Z" fill="#49021f"/>
  <path id="Path_99538" data-name="Path 99538" d="M14.6,8.4V35.8a.43.43,0,0,1-.4.4H9a.43.43,0,0,1-.4-.4V8.4c.2-.4.2-.4.6-.4h5.2l.2.4Z" transform="translate(8.6 7.721)" fill="#f36"/>
  <path id="Path_99539" data-name="Path 99539" d="M24.9,37.8a14.346,14.346,0,0,1-5.8-1.2,9.877,9.877,0,0,1-4-3.6,11.118,11.118,0,0,1-1.4-6,10.969,10.969,0,0,1,5.6-9.8,14.233,14.233,0,0,1,6.8-1.6h1.4V7.2c0-.2,0-.4.2-.4h5.4l.2.2h0V34a4.4,4.4,0,0,0,.2,1.6c0,.2,0,.4-.2.4a15.889,15.889,0,0,1-4.4,1.2A12.9,12.9,0,0,1,24.9,37.8Zm2.6-5.4V20.6c-.2,0-.4-.2-.8-.2h-.8a8.025,8.025,0,0,0-3,.6,5.321,5.321,0,0,0-2.2,2,5.722,5.722,0,0,0-.8,3.4,13.505,13.505,0,0,0,.4,2.8A2.912,2.912,0,0,0,21.5,31a8.106,8.106,0,0,0,1.8,1,8.506,8.506,0,0,0,2.2.4h1.2C26.9,32.6,27.3,32.4,27.5,32.4Z" transform="translate(13.7 6.542)" fill="#f36"/>
</svg>
